<?xml version="1.0" standalone="no"?>
<!DOCTYPE svg PUBLIC "-//W3C//DTD SVG 20010904//EN"
 "http://www.w3.org/TR/2001/REC-SVG-20010904/DTD/svg10.dtd">
<svg version="1.0" xmlns="http://www.w3.org/2000/svg"
 width="256.000000pt" height="256.000000pt" viewBox="0 0 256.000000 256.000000"
 preserveAspectRatio="xMidYMid meet">
<metadata>
Created by potrace 1.14, written by Peter Selinger 2001-2017
</metadata>
<g transform="translate(0.000000,256.000000) scale(0.100000,-0.100000)"
fill="#000000" stroke="none">
<path d="M1603 2410 c-12 -5 -27 -19 -34 -31 -10 -19 -39 -178 -39 -216 0 -10
-40 -13 -162 -14 -90 0 -219 -4 -288 -8 l-126 -6 -83 -60 -83 -61 -91 9 c-99
8 -199 2 -232 -15 -11 -6 -30 -19 -42 -30 l-22 -20 -22 43 c-99 196 -203 386
-217 397 -19 14 -66 16 -91 2 -23 -12 -37 -47 -51 -124 -19 -110 -13 -155 36
-293 25 -70 74 -209 109 -308 l63 -181 -26 -143 -26 -143 27 -79 c58 -170 117
-254 192 -279 29 -10 37 -19 46 -53 94 -353 134 -489 154 -524 36 -60 90 -101
168 -125 l69 -20 181 21 c100 12 338 44 529 71 269 38 356 54 390 71 116 59
527 304 557 332 40 38 61 83 61 132 0 19 -31 149 -70 288 -62 224 -73 255
-100 280 -17 15 -38 27 -48 27 -14 0 -28 45 -81 263 -100 411 -126 498 -151
519 -18 15 -41 18 -135 18 l-112 0 -70 113 c-65 103 -116 158 -147 156 -6 0
-21 -4 -33 -9z m-1438 -145 c40 -72 87 -163 245 -470 51 -99 97 -186 102 -192
6 -7 7 -13 2 -13 -5 0 -4 -4 2 -8 18 -12 171 -314 193 -382 36 -109 26 -182
-32 -234 -46 -41 -82 -57 -142 -63 -127 -13 -188 33 -248 191 -43 111 -44 130
-17 256 31 147 31 148 -68 425 -22 61 -61 168 -86 239 l-46 128 11 87 c12 89
25 129 39 115 4 -5 24 -40 45 -79z m1497 58 c14 -16 34 -44 43 -63 10 -19 29
-49 41 -66 13 -17 24 -34 24 -37 0 -4 -39 -7 -86 -7 l-87 0 7 63 c11 99 18
137 25 137 4 0 19 -12 33 -27z m383 -239 c18 -4 31 -45 94 -292 84 -331 107
-430 101 -435 -3 -3 -140 -7 -305 -11 -165 -3 -392 -9 -505 -12 -176 -6 -212
-4 -255 10 -95 32 -144 59 -156 88 -6 16 -35 50 -65 77 -41 37 -67 52 -116 66
-35 9 -69 15 -77 13 -7 -2 -17 8 -21 22 -37 116 -60 200 -60 218 0 23 89 101
143 125 15 6 27 15 27 18 0 4 32 29 71 55 l71 49 402 5 c220 3 453 6 516 8 63
1 124 -1 135 -4z m-1355 -130 c0 -3 -15 -20 -34 -38 -19 -18 -38 -44 -41 -59
-7 -27 -3 -44 44 -216 12 -41 18 -78 13 -83 -4 -4 -18 -9 -31 -10 -22 -3 -33
14 -115 174 l-91 177 26 25 c14 13 34 26 45 29 27 7 184 8 184 1z m198 -480
c44 -31 63 -53 89 -105 41 -81 63 -179 63 -282 0 -110 -33 -195 -102 -259 -54
-50 -93 -63 -156 -52 -43 7 -122 44 -122 56 0 4 -7 8 -15 8 -25 0 -17 14 15
29 88 38 134 116 133 221 -1 87 -25 165 -85 282 -28 53 -47 101 -44 107 3 5
20 12 36 16 16 4 33 11 36 17 14 22 95 1 152 -38z m652 -204 c402 11 781 12
796 2 11 -7 29 -66 99 -317 19 -71 40 -146 46 -166 21 -67 -19 -119 -141 -186
-30 -17 -107 -61 -170 -98 -148 -88 -184 -109 -244 -141 -46 -24 -146 -47
-250 -58 -23 -3 -88 -12 -146 -21 -58 -9 -121 -18 -140 -20 -19 -3 -147 -19
-285 -36 -285 -37 -322 -35 -387 15 -64 48 -80 79 -122 237 -35 130 -78 287
-92 331 -9 31 30 25 76 -13 99 -82 212 -112 320 -87 36 8 148 114 167 158 46
107 56 238 28 355 -21 88 -23 86 53 60 l67 -24 325 9z"/>
<path d="M419 1263 c-58 -64 -65 -141 -21 -224 29 -56 59 -79 104 -79 21 0 31
8 43 30 15 29 15 31 -9 40 -54 20 -77 112 -46 184 15 37 18 52 9 62 -18 22
-53 16 -80 -13z"/>
<path d="M1159 1983 c-6 -43 122 -561 142 -574 7 -4 99 -5 204 -2 423 12 594
19 600 24 5 6 -5 51 -86 370 -16 64 -30 125 -32 137 -8 53 2 52 -428 52 -220
0 -399 -3 -400 -7z m301 -163 c5 -33 7 -35 41 -32 41 4 55 -9 61 -53 3 -29 2
-30 -44 -33 l-46 -3 -7 41 c-5 31 -11 40 -22 36 -8 -3 -24 -6 -35 -6 -18 0
-19 -4 -14 -36 l7 -35 -48 3 c-48 3 -48 3 -51 41 -3 37 -3 37 34 37 36 0 37 0
31 34 -7 43 -2 48 48 44 37 -3 40 -5 45 -38z m364 24 c3 -9 6 -24 6 -35 0 -16
7 -19 44 -19 37 0 45 -4 50 -22 13 -51 9 -58 -39 -58 -43 0 -44 1 -51 35 -6
33 -9 35 -44 35 l-39 0 10 -32 c5 -18 9 -34 9 -35 0 -2 -22 -3 -50 -3 -27 0
-50 4 -50 9 0 5 -3 23 -6 40 -6 31 -6 31 35 31 l42 0 -7 35 -6 35 45 0 c32 0
47 -5 51 -16z m-95 -281 c6 -32 7 -61 3 -65 -5 -5 -38 -8 -72 -6 -70 3 -67 0
-84 91 l-7 37 74 0 74 0 12 -57z"/>
<path d="M1284 968 c60 -296 62 -282 -63 -367 -208 -140 -271 -187 -271 -201
0 -4 96 48 213 118 l212 125 100 8 c55 4 177 12 270 18 94 6 240 17 325 25 85
7 160 11 166 9 7 -2 15 0 18 5 3 6 0 12 -7 14 -14 5 -400 -8 -642 -21 -222
-12 -210 -21 -278 203 -13 44 -29 82 -36 84 -8 3 -10 -4 -7 -20z"/>
</g>
</svg>
